<svg width="34" height="34" viewBox="0 0 34 34" fill="none" xmlns="http://www.w3.org/2000/svg">
<path fill-rule="evenodd" clip-rule="evenodd" d="M33.3207 17.3867C33.3221 16.2203 33.2186 15.056 33.0116 13.9081H16.9957V20.4842H26.1456C25.9557 21.5233 25.5572 22.5131 24.9742 23.394C24.3912 24.2748 23.6357 25.0284 22.7534 25.6092V29.8759H28.2468C31.4612 26.9161 33.3159 22.5566 33.3159 17.3835L33.3207 17.3867Z" fill="#A2BDEA"/>
<path fill-rule="evenodd" clip-rule="evenodd" d="M17.0008 34C21.591 34 25.4396 32.4785 28.252 29.8824L22.7585 25.6157C21.2354 26.6359 19.2879 27.2397 17.0008 27.2397C12.5725 27.2397 8.82477 24.248 7.48905 20.2296H1.80823V24.6356C3.22336 27.4516 5.39361 29.8187 8.0765 31.4724C10.7594 33.1261 13.8493 34.0012 17.0008 34Z" fill="#9BCCA9"/>
<path fill-rule="evenodd" clip-rule="evenodd" d="M7.4889 20.2296C6.7778 18.1353 6.7778 15.8648 7.4889 13.7705V9.3645H1.80809C0.61913 11.7342 0 14.3488 0 17C0 19.6513 0.61913 22.2659 1.80809 24.6356L7.4889 20.2296Z" fill="#EDD077"/>
<path fill-rule="evenodd" clip-rule="evenodd" d="M17.0011 6.76028C19.4979 6.76028 21.7385 7.61872 23.5003 9.30359L28.3755 4.42678C25.4318 1.68327 21.5832 1.17612e-06 17.0043 1.17612e-06C13.8527 -0.00117107 10.7628 0.87397 8.07992 2.52766C5.39703 4.18134 3.22678 6.54843 1.81165 9.36445L7.49246 13.7704C8.82818 9.75204 12.5759 6.76028 17.0043 6.76028H17.0011Z" fill="#EE9A93"/>
</svg>
