<svg width="342" height="80" viewBox="0 0 342 80" fill="none" xmlns="http://www.w3.org/2000/svg">
<g clip-path="url(#clip0_1016_11844)">
<path fill-rule="evenodd" clip-rule="evenodd" d="M113.945 42.5961C113.945 41.4915 114.84 40.5961 115.945 40.5961H157.275C158.379 40.5961 159.275 41.4915 159.275 42.5961V43.129C159.275 44.2336 158.315 45.0866 157.374 45.6662C156.339 46.3047 155.648 47.4495 155.648 48.7554C155.648 50.128 156.411 51.3227 157.536 51.9385C158.414 52.4193 159.275 53.1935 159.275 54.1949V54.1949C159.275 55.1963 158.414 55.9705 157.536 56.4514C156.411 57.0672 155.648 58.2618 155.648 59.6345C155.648 60.9404 156.339 62.0851 157.374 62.7236C158.315 63.3033 159.275 64.1563 159.275 65.2608V65.7938C159.275 66.8984 158.379 67.7938 157.275 67.7938H115.945C114.84 67.7938 113.945 66.8984 113.945 65.7938V65.2608C113.945 64.1563 114.905 63.3033 115.845 62.7236C116.881 62.0851 117.571 60.9404 117.571 59.6345C117.571 58.2618 116.809 57.0672 115.684 56.4514C114.805 55.9705 113.945 55.1963 113.945 54.1949V54.1949C113.945 53.1935 114.805 52.4193 115.684 51.9385C116.809 51.3227 117.571 50.128 117.571 48.7554C117.571 47.4495 116.881 46.3047 115.845 45.6662C114.905 45.0866 113.945 44.2336 113.945 43.129V42.5961Z" fill="#FFF6D2"/>
<path fill-rule="evenodd" clip-rule="evenodd" d="M121.651 47.8492C121.651 47.5988 121.854 47.3959 122.104 47.3959H126.637C126.888 47.3959 127.091 47.5988 127.091 47.8492C127.091 48.0995 126.888 48.3025 126.637 48.3025H122.104C121.854 48.3025 121.651 48.0995 121.651 47.8492Z" fill="#DFCE85"/>
<path fill-rule="evenodd" clip-rule="evenodd" d="M129.357 47.8492C129.357 47.5988 129.56 47.3959 129.81 47.3959H136.156C136.407 47.3959 136.61 47.5988 136.61 47.8492C136.61 48.0995 136.407 48.3025 136.156 48.3025H129.81C129.56 48.3025 129.357 48.0995 129.357 47.8492Z" fill="#DFCE85"/>
<path fill-rule="evenodd" clip-rule="evenodd" d="M121.651 56.9144C121.651 56.664 121.854 56.4611 122.104 56.4611H126.637C126.888 56.4611 127.091 56.664 127.091 56.9144C127.091 57.1647 126.888 57.3677 126.637 57.3677H122.104C121.854 57.3677 121.651 57.1647 121.651 56.9144Z" fill="#DFCE85"/>
<path fill-rule="evenodd" clip-rule="evenodd" d="M129.357 56.9144C129.357 56.664 129.56 56.4611 129.81 56.4611H136.156C136.407 56.4611 136.61 56.664 136.61 56.9144C136.61 57.1647 136.407 57.3677 136.156 57.3677H129.81C129.56 57.3677 129.357 57.1647 129.357 56.9144Z" fill="#DFCE85"/>
<path fill-rule="evenodd" clip-rule="evenodd" d="M122.104 61.4478C122.104 61.1975 122.307 60.9945 122.558 60.9945H128.904C129.154 60.9945 129.357 61.1975 129.357 61.4478C129.357 61.6982 129.154 61.9011 128.904 61.9011H122.558C122.307 61.9011 122.104 61.6982 122.104 61.4478Z" fill="#DFCE85"/>
<path fill-rule="evenodd" clip-rule="evenodd" d="M136.61 52.3818C136.61 52.1314 136.407 51.9285 136.157 51.9285H131.624C131.373 51.9285 131.17 52.1314 131.17 52.3818C131.17 52.6321 131.373 52.8351 131.624 52.8351H136.157C136.407 52.8351 136.61 52.6321 136.61 52.3818Z" fill="#DFCE85"/>
<path fill-rule="evenodd" clip-rule="evenodd" d="M128.904 52.3818C128.904 52.1314 128.701 51.9285 128.451 51.9285H122.104C121.854 51.9285 121.651 52.1314 121.651 52.3818C121.651 52.6321 121.854 52.8351 122.104 52.8351H128.451C128.701 52.8351 128.904 52.6321 128.904 52.3818Z" fill="#DFCE85"/>
<g filter="url(#filter0_d_1016_11844)">
<path fill-rule="evenodd" clip-rule="evenodd" d="M94.5851 26.7575C94.2619 25.7012 94.8563 24.583 95.9125 24.2599L135.434 12.1699C136.49 11.8468 137.609 12.4411 137.932 13.4973L138.088 14.007C138.411 15.0632 137.742 16.1597 137.013 16.9891C136.209 17.9026 135.884 19.1992 136.266 20.448C136.667 21.7607 137.746 22.68 139.002 22.9397C139.983 23.1426 141.032 23.6313 141.325 24.5888V24.5888C141.618 25.5464 141.021 26.5385 140.322 27.2552C139.427 28.1731 139.047 29.5386 139.448 30.8513C139.83 32.1001 140.825 32.9928 142.002 33.3004C143.071 33.5796 144.239 34.1144 144.562 35.1707L144.718 35.6803C145.041 36.7366 144.447 37.8548 143.39 38.1779L103.869 50.2679C102.812 50.5911 101.694 49.9967 101.371 48.9405L101.215 48.4308C100.892 47.3746 101.561 46.2781 102.29 45.4488C103.094 44.5352 103.419 43.2386 103.037 41.9898C102.635 40.6771 101.557 39.7579 100.301 39.4981C99.3202 39.2952 98.271 38.8066 97.978 37.849V37.849C97.6851 36.8914 98.2814 35.8994 98.9807 35.1826C99.8762 34.2647 100.256 32.8993 99.8546 31.5866C99.4725 30.3377 98.4775 29.445 97.3003 29.1374C96.2316 28.8582 95.0641 28.3234 94.741 27.2671L94.5851 26.7575Z" fill="#FFF6D2"/>
</g>
<path fill-rule="evenodd" clip-rule="evenodd" d="M123.654 15.7735C122.598 16.0966 122.004 17.2148 122.327 18.2711L129.698 42.3661C129.698 42.3662 129.698 42.3663 129.698 42.3663V42.3663C129.698 42.3664 129.698 42.3667 129.698 42.3666L143.44 38.1628C144.469 37.8481 145.048 36.7591 144.733 35.7304L144.562 35.1708C144.239 34.1146 143.071 33.5797 142.002 33.3005C140.825 32.993 139.83 32.1002 139.448 30.8514C139.047 29.5387 139.427 28.1732 140.322 27.2554C141.021 26.5386 141.618 25.5466 141.325 24.589V24.589C141.032 23.6314 139.983 23.1427 139.002 22.9399C137.746 22.6801 136.667 21.7609 136.266 20.4482C135.884 19.1993 136.209 17.9027 137.013 16.9892C137.742 16.1599 138.411 15.0634 138.088 14.0071L137.932 13.4975C137.609 12.4412 136.49 11.8469 135.434 12.17L123.654 15.7735Z" fill="#FFD874"/>
<path fill-rule="evenodd" clip-rule="evenodd" d="M145.356 40.6294C144.251 40.6274 143.354 41.5212 143.352 42.6258L143.307 67.8229C143.307 67.823 143.307 67.8231 143.307 67.8231V67.8231C143.307 67.8232 143.307 67.8235 143.307 67.8235L157.673 67.8491C158.752 67.851 159.627 66.9784 159.629 65.9001L159.63 65.3196C159.632 64.2151 158.674 63.3604 157.734 62.7791C156.7 62.1388 156.012 60.9928 156.014 59.6868C156.016 58.3141 156.781 57.1208 157.907 56.5071C158.786 56.0278 159.648 55.2551 159.65 54.2537V54.2537C159.652 53.2524 158.793 52.4766 157.915 51.9942C156.791 51.3764 156.031 50.1805 156.033 48.8077C156.036 47.5018 156.728 46.3582 157.765 45.7216C158.706 45.1437 159.668 44.2924 159.67 43.1879L159.671 42.6549C159.673 41.5503 158.779 40.6533 157.674 40.6513L145.356 40.6294Z" fill="#FFC061"/>
<path fill-rule="evenodd" clip-rule="evenodd" d="M103.491 29.5249C103.417 29.2855 103.552 29.0321 103.791 28.9588L108.126 27.6328C108.365 27.5596 108.619 27.6943 108.692 27.9337C108.765 28.1731 108.631 28.4265 108.391 28.4997L104.057 29.8258C103.817 29.899 103.564 29.7643 103.491 29.5249Z" fill="#DFCE85"/>
<path fill-rule="evenodd" clip-rule="evenodd" d="M110.859 27.2715C110.786 27.0321 110.921 26.7786 111.16 26.7054L117.229 24.849C117.468 24.7758 117.722 24.9105 117.795 25.1499C117.868 25.3893 117.733 25.6427 117.494 25.7159L111.425 27.5723C111.186 27.6456 110.933 27.5109 110.859 27.2715Z" fill="#DFCE85"/>
<path fill-rule="evenodd" clip-rule="evenodd" d="M106.143 38.194C106.069 37.9546 106.204 37.7011 106.443 37.6279L110.778 36.3019C111.018 36.2286 111.271 36.3634 111.344 36.6027C111.417 36.8421 111.283 37.0956 111.043 37.1688L106.709 38.4948C106.469 38.5681 106.216 38.4334 106.143 38.194Z" fill="#DFCE85"/>
<path fill-rule="evenodd" clip-rule="evenodd" d="M113.512 35.9405C113.438 35.7011 113.573 35.4477 113.812 35.3745L119.881 33.5181C120.12 33.4448 120.374 33.5795 120.447 33.8189C120.52 34.0583 120.386 34.3118 120.146 34.385L114.078 36.2414C113.838 36.3146 113.585 36.1799 113.512 35.9405Z" fill="#DFCE85"/>
<path fill-rule="evenodd" clip-rule="evenodd" d="M107.902 42.3968C107.829 42.1574 107.964 41.904 108.203 41.8308L114.272 39.9744C114.511 39.9011 114.764 40.0358 114.838 40.2752C114.911 40.5146 114.776 40.7681 114.537 40.8413L108.468 42.6977C108.229 42.7709 107.975 42.6362 107.902 42.3968Z" fill="#DFCE85"/>
<path fill-rule="evenodd" clip-rule="evenodd" d="M119.121 29.4852C119.048 29.2458 118.794 29.1111 118.555 29.1844L114.22 30.5104C113.981 30.5836 113.846 30.837 113.919 31.0764C113.993 31.3158 114.246 31.4505 114.485 31.3773L118.82 30.0513C119.059 29.9781 119.194 29.7246 119.121 29.4852Z" fill="#DFCE85"/>
<path fill-rule="evenodd" clip-rule="evenodd" d="M111.752 31.7396C111.679 31.5002 111.425 31.3655 111.186 31.4388L105.117 33.2952C104.878 33.3684 104.743 33.6218 104.817 33.8612C104.89 34.1006 105.143 34.2353 105.383 34.1621L111.451 32.3057C111.691 32.2325 111.825 31.979 111.752 31.7396Z" fill="#DFCE85"/>
</g>
<path d="M47.2371 56.5432C47.2371 55.9065 47.7533 55.3903 48.39 55.3903H52.4255C53.0623 55.3903 53.5785 55.9065 53.5785 56.5432V68.6496C53.5785 69.2864 53.0623 69.8026 52.4255 69.8026H48.39C47.7533 69.8026 47.2371 69.2864 47.2371 68.6496V56.5432Z" fill="#958266"/>
<path fill-rule="evenodd" clip-rule="evenodd" d="M65.4135 38.3206C65.4135 40.1222 64.8181 41.7849 63.8134 43.1224C66 44.7651 67.4143 47.3801 67.4143 50.3255C67.4143 55.2979 63.3833 59.3289 58.4108 59.3289V59.3293H41.4042V59.274C36.9025 58.7764 33.4011 54.9598 33.4011 50.3255C33.4011 47.3801 34.8154 44.7651 37.002 43.1224C35.9973 41.7848 35.4019 40.1222 35.4019 38.3206C35.4019 34.9216 37.5208 32.0175 40.5098 30.8572C41.2171 26.0249 45.3791 22.3147 50.4077 22.3147C55.4363 22.3147 59.5983 26.0249 60.3056 30.8572C63.2946 32.0175 65.4135 34.9216 65.4135 38.3206Z" fill="#356D60"/>
<path d="M21.2949 53.2815C21.2949 52.6448 21.8111 52.1285 22.4479 52.1285H27.6364C28.2731 52.1285 28.7893 52.6448 28.7893 53.2815V68.8469C28.7893 69.4836 28.2731 69.9999 27.6364 69.9999H22.4479C21.8111 69.9999 21.2949 69.4836 21.2949 68.8469V53.2815Z" fill="#A39074"/>
<g filter="url(#filter1_d_1016_11844)">
<path fill-rule="evenodd" clip-rule="evenodd" d="M43.6085 30.8041C43.6085 33.0332 42.872 35.0903 41.6289 36.7452C44.3342 38.7776 46.0841 42.0131 46.0841 45.6573C46.0841 51.8097 41.0966 56.7972 34.9441 56.7972L34.9442 56.7977H13.9021V56.7292C8.33224 56.1135 4 51.3913 4 45.6573C4 42.0131 5.74984 38.7776 8.45513 36.7452C7.21212 35.0903 6.47557 33.0332 6.47557 30.8041C6.47557 26.5986 9.09727 23.0054 12.7955 21.5698C13.6705 15.5907 18.8201 11 25.042 11C31.2639 11 36.4136 15.5907 37.2886 21.5698C40.9868 23.0054 43.6085 26.5986 43.6085 30.8041Z" fill="#3E796B"/>
</g>
<path d="M39.1663 39.2486C39.1663 38.6118 39.6825 38.0956 40.3192 38.0956H43.2017C43.8385 38.0956 44.3547 38.6118 44.3547 39.2486V55.9669C44.3547 56.6037 43.8385 57.1199 43.2017 57.1199H40.3192C39.6825 57.1199 39.1663 56.6037 39.1663 55.9669V39.2486Z" fill="#C2B097"/>
<path d="M62.8025 39.2486C62.8025 38.6118 63.3187 38.0956 63.9555 38.0956H66.8379C67.4747 38.0956 67.9909 38.6118 67.9909 39.2486V57.1199C67.9909 57.7567 67.4747 58.2729 66.8379 58.2729H63.9555C63.3187 58.2729 62.8025 57.7567 62.8025 57.1199V39.2486Z" fill="#C2B097"/>
<path d="M67.4143 58.2725C67.4143 57.6357 67.9305 57.1195 68.5673 57.1195H70.2968C70.9336 57.1195 71.4498 57.6357 71.4498 58.2725V68.6494C71.4498 69.2862 70.9336 69.8024 70.2968 69.8024H68.5673C67.9305 69.8024 67.4143 69.2862 67.4143 68.6494V58.2725Z" fill="#B49F83"/>
<path d="M35.1306 58.2725C35.1306 57.6357 35.6468 57.1195 36.2836 57.1195H38.0131C38.6499 57.1195 39.1661 57.6357 39.1661 58.2725V68.6494C39.1661 69.2862 38.6499 69.8024 38.0131 69.8024H36.2836C35.6468 69.8024 35.1306 69.2862 35.1306 68.6494V58.2725Z" fill="#B49F83"/>
<g filter="url(#filter2_d_1016_11844)">
<path d="M31.6716 56.5432C31.6716 55.9065 32.1878 55.3903 32.8246 55.3903H74.9087C75.5455 55.3903 76.0617 55.9065 76.0617 56.5432V58.8492C76.0617 59.486 75.5455 60.0022 74.9087 60.0022H32.8246C32.1878 60.0022 31.6716 59.486 31.6716 58.8492V56.5432Z" fill="#D1C1AB"/>
</g>
<path d="M35.1306 41.5546C35.1306 40.9178 35.6468 40.4016 36.2836 40.4016H71.4497C72.0865 40.4016 72.6027 40.9178 72.6027 41.5546V50.7785C72.6027 51.4153 72.0865 51.9315 71.4497 51.9315H36.2836C35.6468 51.9315 35.1306 51.4153 35.1306 50.7785V41.5546Z" fill="#E7D5BC"/>
<path d="M301.659 26.8226C301.423 26.1559 301.772 25.4238 302.439 25.1874L319.34 19.1966C320.007 18.9603 320.739 19.3092 320.975 19.9759L328.25 40.4991C330.141 45.8331 327.349 51.6898 322.015 53.5805V53.5805C316.681 55.4711 310.825 52.6798 308.934 47.3458L301.659 26.8226Z" fill="#989FD3"/>
<path d="M320.943 52.28C320.706 51.6133 321.055 50.8812 321.722 50.6448V50.6448C322.389 50.4085 323.121 50.7574 323.357 51.4242L328.92 67.1184C329.156 67.7852 328.807 68.5172 328.141 68.7536V68.7536C327.474 68.9899 326.742 68.641 326.506 67.9742L320.943 52.28Z" fill="#979FD3"/>
<path d="M322.224 69.7932C321.987 69.1264 322.336 68.3944 323.003 68.158L331.983 64.9749C332.65 64.7385 333.382 65.0875 333.618 65.7542V65.7542C333.855 66.421 333.506 67.153 332.839 67.3894L323.859 70.5725C323.192 70.8089 322.46 70.4599 322.224 69.7932V69.7932Z" fill="#979FD3"/>
<path fill-rule="evenodd" clip-rule="evenodd" d="M304.503 34.8466L308.934 47.3461C310.825 52.6796 316.681 55.4714 322.015 53.5802C327.349 51.6902 330.14 45.8338 328.25 40.499L326.246 34.8466H304.503Z" fill="#4E568B"/>
<path fill-rule="evenodd" clip-rule="evenodd" d="M321.558 27.8486C321.886 27.7172 322.259 27.877 322.39 28.2054L326.233 37.8117C326.364 38.1401 326.204 38.5128 325.876 38.6442C325.548 38.7755 325.175 38.6158 325.044 38.2874L321.201 28.6811C321.07 28.3527 321.229 27.9799 321.558 27.8486Z" fill="#DBE0FB" fill-opacity="0.58"/>
<path d="M326.919 40.6112C326.919 40.9649 326.632 41.2517 326.278 41.2517C325.925 41.2517 325.638 40.9649 325.638 40.6112C325.638 40.2576 325.925 39.9708 326.278 39.9708C326.632 39.9708 326.919 40.2576 326.919 40.6112Z" fill="#BFC4EA" fill-opacity="0.64"/>
<path d="M300.387 22.4079C300.623 21.7412 300.274 21.0091 299.607 20.7728L282.706 14.7819C282.039 14.5456 281.307 14.8945 281.071 15.5612L273.796 36.0845C271.906 41.4184 274.697 47.2752 280.031 49.1658V49.1658C285.365 51.0565 291.222 48.2651 293.112 42.9312L300.387 22.4079Z" fill="#989FD3"/>
<path d="M281.104 47.8642C281.34 47.1975 280.991 46.4654 280.324 46.2291V46.2291C279.657 45.9927 278.925 46.3416 278.689 47.0084L273.126 62.7026C272.89 63.3694 273.239 64.1015 273.905 64.3378V64.3378C274.572 64.5741 275.304 64.2252 275.541 63.5585L281.104 47.8642Z" fill="#979FD3"/>
<path d="M279.823 65.3773C280.059 64.7105 279.71 63.9785 279.043 63.7421L270.063 60.559C269.396 60.3227 268.664 60.6716 268.428 61.3383V61.3383C268.192 62.0051 268.541 62.7372 269.207 62.9735L278.188 66.1566C278.854 66.393 279.586 66.044 279.823 65.3773V65.3773Z" fill="#979FD3"/>
<path fill-rule="evenodd" clip-rule="evenodd" d="M297.543 30.4318L293.112 42.931C291.222 48.2649 285.365 51.0563 280.031 49.1656C274.697 47.275 271.906 41.4183 273.796 36.0844L275.8 30.4318H297.543Z" fill="#4E568B"/>
<path fill-rule="evenodd" clip-rule="evenodd" d="M280.489 23.4327C280.16 23.3013 279.788 23.4611 279.656 23.7895L275.814 33.3958C275.682 33.7242 275.842 34.0969 276.17 34.2283C276.499 34.3596 276.871 34.1999 277.003 33.8715L280.845 24.2652C280.977 23.9368 280.817 23.5641 280.489 23.4327Z" fill="#DBE0FB" fill-opacity="0.58"/>
<path d="M275.127 36.1955C275.127 36.5492 275.414 36.8359 275.768 36.8359C276.121 36.8359 276.408 36.5492 276.408 36.1955C276.408 35.8418 276.121 35.5551 275.768 35.5551C275.414 35.5551 275.127 35.8418 275.127 36.1955Z" fill="#BFC4EA" fill-opacity="0.64"/>
<path fill-rule="evenodd" clip-rule="evenodd" d="M297.808 12.1529C298.109 11.9657 298.504 12.0573 298.691 12.3574L301.158 16.3137C301.345 16.6138 301.253 17.0088 300.953 17.196C300.653 17.3831 300.258 17.2915 300.071 16.9914L297.604 13.0351C297.417 12.735 297.508 12.34 297.808 12.1529Z" fill="#8595FF"/>
<path fill-rule="evenodd" clip-rule="evenodd" d="M312.063 12.9787C311.775 12.7736 311.375 12.8408 311.17 13.129L308.465 16.927C308.26 17.2151 308.328 17.615 308.616 17.8201C308.904 18.0253 309.304 17.958 309.509 17.6699L312.213 13.8719C312.418 13.5837 312.351 13.1839 312.063 12.9787Z" fill="#8595FF"/>
<path fill-rule="evenodd" clip-rule="evenodd" d="M305.088 11.1508C305.441 11.1503 305.729 11.4365 305.729 11.7902L305.736 16.4526C305.737 16.8063 305.451 17.0934 305.097 17.094C304.743 17.0946 304.456 16.8083 304.456 16.4546L304.448 11.7922C304.448 11.4385 304.734 11.1514 305.088 11.1508Z" fill="#8595FF"/>
<g clip-path="url(#clip1_1016_11844)">
<path d="M198.216 47.8035C193.604 47.1447 187.876 54.1173 185.588 57.6859L185.039 58.5095L198.765 66.4703L202.059 62.0781C205.079 59.882 211.392 64.8232 223.471 60.7056C235.549 56.5879 238.294 48.3524 238.02 47.2543C237.8 46.3759 235.183 46.8883 233.902 47.2543C226.216 56.8622 214.961 54.6661 216.334 54.3916C217.706 54.1171 221 51.372 221.275 50.5485C221.494 49.8896 220.634 48.444 220.177 47.8035H216.334C210.294 51.6468 203.981 48.627 198.216 47.8035Z" fill="#FCDAAB"/>
<path fill-rule="evenodd" clip-rule="evenodd" d="M214.137 8C213.131 8 210.788 8.32941 209.471 9.64707C208.153 10.9647 212.033 13.3072 214.137 14.3138C216.242 13.3072 220.122 10.9647 218.804 9.64707C217.486 8.32941 215.144 8 214.137 8Z" fill="#E3E1DB"/>
<g filter="url(#filter3_d_1016_11844)">
<path d="M179 43.6869C179 42.4741 179.983 41.4908 181.196 41.4908H247.628C248.841 41.4908 249.824 42.4741 249.824 43.6869V45.883C249.824 47.0959 248.841 48.0791 247.628 48.0791H181.196C179.983 48.0791 179 47.0959 179 45.883V43.6869Z" fill="#E3E1DB"/>
</g>
<path d="M181.745 58.2155C182.352 57.1651 183.695 56.8052 184.745 57.4116L199.96 66.196C201.01 66.8024 201.37 68.1455 200.764 69.1959L199.666 71.0978C199.059 72.1482 197.716 72.508 196.666 71.9016L181.451 63.1172C180.401 62.5108 180.041 61.1677 180.647 60.1173L181.745 58.2155Z" fill="#BC4B43"/>
<path fill-rule="evenodd" clip-rule="evenodd" d="M244.314 41.49H183.961C184.539 25.3217 197.828 12.3918 214.137 12.3918C230.447 12.3918 243.736 25.3217 244.314 41.49Z" fill="#C8C6C1"/>
<path fill-rule="evenodd" clip-rule="evenodd" d="M203.902 16.7092C204.096 17.1207 203.919 17.6113 203.508 17.805C202.048 18.4917 198.214 20.8737 195.005 24.7243C194.714 25.0737 194.195 25.1209 193.845 24.8298C193.496 24.5386 193.449 24.0193 193.74 23.6699C197.119 19.6145 201.154 17.092 202.806 16.3147C203.218 16.121 203.708 16.2976 203.902 16.7092Z" fill="#E3E1DB"/>
<path d="M193.274 26.6662C193.274 27.2726 192.783 27.7642 192.176 27.7642C191.57 27.7642 191.078 27.2726 191.078 26.6662C191.078 26.0597 191.57 25.5681 192.176 25.5681C192.783 25.5681 193.274 26.0597 193.274 26.6662Z" fill="#E3E1DB"/>
</g>
<rect y="80" width="80" height="72" transform="rotate(-90 0 80)" fill="url(#paint0_linear_1016_11844)"/>
<rect width="80" height="71" transform="matrix(5.24537e-08 -1 -1 -3.64262e-08 341 80)" fill="url(#paint1_linear_1016_11844)"/>
<defs>
<filter id="filter0_d_1016_11844" x="92.4971" y="12.0819" width="54.3086" height="42.274" filterUnits="userSpaceOnUse" color-interpolation-filters="sRGB">
<feFlood flood-opacity="0" result="BackgroundImageFix"/>
<feColorMatrix in="SourceAlpha" type="matrix" values="0 0 0 0 0 0 0 0 0 0 0 0 0 0 0 0 0 0 127 0" result="hardAlpha"/>
<feOffset dy="2"/>
<feGaussianBlur stdDeviation="1"/>
<feComposite in2="hardAlpha" operator="out"/>
<feColorMatrix type="matrix" values="0 0 0 0 0.741667 0 0 0 0 0.683909 0 0 0 0 0.445 0 0 0 0.35 0"/>
<feBlend mode="normal" in2="BackgroundImageFix" result="effect1_dropShadow_1016_11844"/>
<feBlend mode="normal" in="SourceGraphic" in2="effect1_dropShadow_1016_11844" result="shape"/>
</filter>
<filter id="filter1_d_1016_11844" x="1" y="7" width="50.084" height="53.7977" filterUnits="userSpaceOnUse" color-interpolation-filters="sRGB">
<feFlood flood-opacity="0" result="BackgroundImageFix"/>
<feColorMatrix in="SourceAlpha" type="matrix" values="0 0 0 0 0 0 0 0 0 0 0 0 0 0 0 0 0 0 127 0" result="hardAlpha"/>
<feOffset dx="1"/>
<feGaussianBlur stdDeviation="2"/>
<feComposite in2="hardAlpha" operator="out"/>
<feColorMatrix type="matrix" values="0 0 0 0 0.148611 0 0 0 0 0.333333 0 0 0 0 0.289501 0 0 0 0.47 0"/>
<feBlend mode="normal" in2="BackgroundImageFix" result="effect1_dropShadow_1016_11844"/>
<feBlend mode="normal" in="SourceGraphic" in2="effect1_dropShadow_1016_11844" result="shape"/>
</filter>
<filter id="filter2_d_1016_11844" x="30.6716" y="55.3903" width="46.3901" height="6.61194" filterUnits="userSpaceOnUse" color-interpolation-filters="sRGB">
<feFlood flood-opacity="0" result="BackgroundImageFix"/>
<feColorMatrix in="SourceAlpha" type="matrix" values="0 0 0 0 0 0 0 0 0 0 0 0 0 0 0 0 0 0 127 0" result="hardAlpha"/>
<feOffset dy="1"/>
<feGaussianBlur stdDeviation="0.5"/>
<feComposite in2="hardAlpha" operator="out"/>
<feColorMatrix type="matrix" values="0 0 0 0 0.375 0 0 0 0 0.330367 0 0 0 0 0.260938 0 0 0 0.15 0"/>
<feBlend mode="normal" in2="BackgroundImageFix" result="effect1_dropShadow_1016_11844"/>
<feBlend mode="normal" in="SourceGraphic" in2="effect1_dropShadow_1016_11844" result="shape"/>
</filter>
<filter id="filter3_d_1016_11844" x="174" y="38.4908" width="80.824" height="16.5883" filterUnits="userSpaceOnUse" color-interpolation-filters="sRGB">
<feFlood flood-opacity="0" result="BackgroundImageFix"/>
<feColorMatrix in="SourceAlpha" type="matrix" values="0 0 0 0 0 0 0 0 0 0 0 0 0 0 0 0 0 0 127 0" result="hardAlpha"/>
<feOffset dy="2"/>
<feGaussianBlur stdDeviation="2.5"/>
<feComposite in2="hardAlpha" operator="out"/>
<feColorMatrix type="matrix" values="0 0 0 0 0.358333 0 0 0 0 0.217505 0 0 0 0 0.207535 0 0 0 0.27 0"/>
<feBlend mode="normal" in2="BackgroundImageFix" result="effect1_dropShadow_1016_11844"/>
<feBlend mode="normal" in="SourceGraphic" in2="effect1_dropShadow_1016_11844" result="shape"/>
</filter>
<linearGradient id="paint0_linear_1016_11844" x1="40" y1="80" x2="40" y2="152" gradientUnits="userSpaceOnUse">
<stop stop-color="#F9F9FB"/>
<stop offset="1" stop-color="#F9F9FB" stop-opacity="0"/>
</linearGradient>
<linearGradient id="paint1_linear_1016_11844" x1="40" y1="0" x2="40" y2="71" gradientUnits="userSpaceOnUse">
<stop stop-color="#F9F9FB"/>
<stop offset="1" stop-color="#F9F9FB" stop-opacity="0"/>
</linearGradient>
<clipPath id="clip0_1016_11844">
<rect width="80" height="80" fill="white" transform="translate(87)"/>
</clipPath>
<clipPath id="clip1_1016_11844">
<rect width="80" height="80" fill="white" transform="translate(174)"/>
</clipPath>
</defs>
</svg>
