<svg width="34" height="34" viewBox="0 0 34 34" fill="none" xmlns="http://www.w3.org/2000/svg">
<path fill-rule="evenodd" clip-rule="evenodd" d="M33.3208 17.3867C33.3222 16.2203 33.2187 15.056 33.0117 13.9081H16.9958V20.4842H26.1457C25.9558 21.5233 25.5573 22.5131 24.9743 23.394C24.3913 24.2748 23.6358 25.0284 22.7535 25.6092V29.8759H28.247C31.4613 26.9161 33.316 22.5566 33.316 17.3835L33.3208 17.3867Z" fill="#3E82F1"/>
<path fill-rule="evenodd" clip-rule="evenodd" d="M17.0007 34C21.5909 34 25.4395 32.4785 28.2518 29.8824L22.7584 25.6157C21.2353 26.6359 19.2878 27.2397 17.0007 27.2397C12.5724 27.2397 8.82464 24.248 7.48892 20.2296H1.80811V24.6356C3.22324 27.4516 5.39349 29.8187 8.07638 31.4724C10.7593 33.1261 13.8491 34.0012 17.0007 34Z" fill="#32A753"/>
<path fill-rule="evenodd" clip-rule="evenodd" d="M7.4889 20.2296C6.7778 18.1353 6.7778 15.8648 7.4889 13.7705V9.3645H1.80809C0.61913 11.7342 0 14.3488 0 17C0 19.6513 0.61913 22.2659 1.80809 24.6356L7.4889 20.2296Z" fill="#F9BB00"/>
<path fill-rule="evenodd" clip-rule="evenodd" d="M17.0009 6.76028C19.4978 6.76028 21.7384 7.61872 23.5002 9.30359L28.3754 4.42678C25.4317 1.68327 21.5831 1.17612e-06 17.0041 1.17612e-06C13.8525 -0.00117107 10.7627 0.87397 8.0798 2.52766C5.39691 4.18134 3.22665 6.54843 1.81152 9.36445L7.49234 13.7704C8.82806 9.75204 12.5758 6.76028 17.0041 6.76028H17.0009Z" fill="#E74133"/>
</svg>
