<svg width="20" height="20" viewBox="0 0 20 20" fill="none" xmlns="http://www.w3.org/2000/svg">
<g clip-path="url(#clip0_982_1123)">
<path d="M20 10C20 4.47715 15.5228 0 10 0C4.47715 0 0 4.47715 0 10C0 15.5228 4.47715 20 10 20C15.5228 20 20 15.5228 20 10Z" fill="#FFE800"/>
<path d="M10 6C7.79038 6 6 7.53996 6 9.44189C6 10.6785 6.75769 11.7623 7.89808 12.3712C7.81346 12.7122 7.59423 13.6035 7.55 13.7939C7.49615 14.0304 7.63077 14.0262 7.71731 13.9634L9.25577 12.8252C9.5015 12.865 9.74964 12.8846 9.99808 12.8838C12.2077 12.8838 14 11.3438 14 9.44398C14 7.54414 12.2038 6 10 6Z" fill="#391B1B"/>
</g>
<defs>
<clipPath id="clip0_982_1123">
<rect width="20" height="20" fill="white"/>
</clipPath>
</defs>
</svg>
