<svg width="30" height="25" viewBox="0 0 30 25" fill="none" xmlns="http://www.w3.org/2000/svg">
<path d="M7.06277 8.56765C6.75382 7.96722 6.45622 7.2602 6.17991 6.4303C4.08336 0.133094 8.43774 -0.541608 10.9375 0.283027C12.5762 0.823608 14.7 2.58839 15.7415 4.75373C16.866 2.4627 19.1362 0.13476 21.5815 0.283027C25.2908 0.507929 25.2908 3.43164 25.0489 4.93097C24.9131 5.77252 24.7265 7.1809 24.0471 8.4005C26.0543 8.00555 28.61 7.88516 29.5646 10.1037C30.8548 13.1024 29.0808 15.8012 26.8229 16.5508C25.7915 16.8933 24.0195 17.0167 22.3528 16.7639C23.5211 18.9228 23.7939 21.845 21.9041 22.998C19.5761 24.4183 16.7886 23.2758 15.7327 19.8457C14.9356 21.2587 13.4884 22.837 10.9375 24.2724C6.01668 27.0414 4.26721 21.3036 7.31712 17.1885C6.76737 17.1619 6.17265 17.1013 5.53482 17.0006C1.26107 16.3259 -1.56121 13.1773 0.938525 10.5535C2.25578 9.17083 4.80456 8.39188 7.06277 8.56765Z" fill="#EAEAEA"/>
<circle cx="16" cy="12" r="4" fill="#FFD12D"/>
</svg>
