<svg width="200" height="50" viewBox="0 0 200 50" fill="none" xmlns="http://www.w3.org/2000/svg">
<path d="M2 2.00139H21.9178C26.7141 2.00139 30.9553 2.95827 34.6413 4.87204C38.3717 6.78581 41.2584 9.45619 43.3012 12.8832C45.3885 16.3102 46.4321 20.2267 46.4321 24.6328C46.4321 29.2615 45.4107 33.3338 43.3678 36.8498C41.3694 40.3658 38.505 43.1029 34.7745 45.0612C31.0885 46.975 26.8029 47.9318 21.9178 47.9318H2V2.00139ZM21.2517 35.9152C24.5824 35.9152 27.1138 34.8693 28.8458 32.7775C30.6222 30.6412 31.5104 27.8818 31.5104 24.4993C31.5104 21.2949 30.6444 18.758 28.9124 16.8887C27.2248 14.975 24.6713 14.0181 21.2517 14.0181H16.7219V35.9152H21.2517Z" fill="white"/>
<path d="M60.7512 2.00139H81.0021L94.2585 47.9318H78.604L76.872 39.1196H65.0146L63.0827 47.9318H48.0944L60.7512 2.00139ZM75.2733 30.9082L70.9433 10.8136L66.4135 30.9082H75.2733Z" fill="white"/>
<path d="M98.6696 2.00139H114.058V47.9318H98.6696V2.00139Z" fill="white"/>
<path d="M136.928 49C130.667 49 125.382 47.8428 121.074 45.5285L124.405 35.1808C128.979 36.8275 133.065 37.6509 136.662 37.6509C138.616 37.6509 140.037 37.4284 140.925 36.9833C141.858 36.4937 142.324 35.7816 142.324 34.847C142.324 34.2239 142.08 33.6898 141.591 33.2448C141.103 32.7552 140.126 32.2211 138.66 31.6426C137.195 31.064 134.997 30.3519 132.066 29.5063C128.468 28.4381 125.671 26.7024 123.672 24.299C121.674 21.8512 120.674 19.0473 120.674 15.8873C120.674 10.9917 122.273 7.29763 125.471 4.80528C128.713 2.26843 133.065 1 138.527 1C141.369 1 144.167 1.31154 146.921 1.93463C149.674 2.51321 152.117 3.38108 154.248 4.53825L150.651 14.6189C148.164 13.7733 145.988 13.1725 144.123 12.8164C142.302 12.4159 140.526 12.2156 138.794 12.2156C135.863 12.2156 134.397 13.0167 134.397 14.6189C134.397 15.42 134.863 16.1099 135.796 16.6885C136.773 17.2225 138.749 17.9124 141.725 18.758C146.388 20.0042 149.918 21.9179 152.316 24.4993C154.715 27.0362 155.914 30.0848 155.914 33.6453C155.914 38.5855 154.315 42.3908 151.117 45.0612C147.92 47.6871 143.19 49 136.928 49Z" fill="white"/>
<path d="M170.822 35.1808L157.632 2.00139H171.555L178.016 22.63L184.345 2.00139H199L185.144 35.1808V47.9318H170.822V35.1808Z" fill="white"/>
</svg>
