<svg width="120" height="120" viewBox="0 0 120 120" fill="none" xmlns="http://www.w3.org/2000/svg">
<g filter="url(#filter0_b_1016_11750)">
<path d="M87.5732 45.5598C80.402 47.3204 60.1168 69.0329 72.1074 65.8074C74.0017 77.5444 96.7266 78.7181 105.564 75.7838C114.402 72.8494 121.346 62.2857 116.296 50.5483C111.245 38.8108 94.7447 43.7992 87.5732 45.5598Z" fill="white" fill-opacity="0.87"/>
<path d="M72.3462 65.3668C73.1354 64.4814 75.7524 64.3462 81.8919 69.0348M77.1715 72.3163C74.7541 70.6811 73.0964 68.5547 72.6215 65.8493C72.6769 65.7269 72.7852 65.6024 72.9836 65.5113C73.2407 65.3934 73.6789 65.3201 74.3766 65.4478C75.7817 65.705 78.0725 66.7471 81.5884 69.4321C81.8079 69.5997 82.1216 69.5577 82.2892 69.3382C82.4568 69.1188 82.4148 68.805 82.1953 68.6374C78.6412 65.9232 76.1974 64.7645 74.5567 64.4642C73.7316 64.3131 73.069 64.3719 72.5666 64.6024C72.169 64.7848 71.8929 65.0662 71.7338 65.3877C71.1187 65.5408 70.6145 65.617 70.2089 65.6312C69.7472 65.6473 69.446 65.5817 69.2582 65.4881C69.0868 65.4027 68.9935 65.2874 68.9429 65.1325C68.8867 64.9599 68.8748 64.7061 68.9469 64.3518C69.0921 63.6383 69.543 62.6817 70.2625 61.5511C70.9756 60.4307 71.9278 59.1774 73.0352 57.8777C75.2501 55.2781 78.062 52.5206 80.7622 50.3065C82.112 49.1996 83.4278 48.2336 84.6217 47.4924C85.8227 46.7468 86.8716 46.2469 87.6924 46.0454C88.1209 45.9402 88.5807 45.8241 89.0678 45.7011C92.6893 44.7865 97.8139 43.4923 102.73 43.4923C108.295 43.4923 113.427 45.1454 115.836 50.7459C120.756 62.1815 114.001 72.4557 105.407 75.3093C101.087 76.7435 93.2866 77.1877 86.3294 75.8069C82.856 75.1176 79.632 73.9806 77.1715 72.3163Z" stroke="url(#paint0_linear_1016_11750)" stroke-opacity="0.5" stroke-linecap="round" stroke-linejoin="round"/>
</g>
<g filter="url(#filter1_b_1016_11750)">
<path d="M65.216 64.2466C63.9294 55.5689 62.8058 44.7489 64.7934 56.6577C75.375 58.3282 70.4349 62.5117 65.216 64.2466C65.7681 67.9706 66.3502 71.3 66.7293 72.2692C67.9919 75.497 68.9387 92.2229 44.9509 105.721C20.963 119.219 16.2285 81.0723 43.0571 67.8677C44.8457 67.4764 58.3216 60.2973 58.8267 63.8186C59.0586 65.4359 62.1843 65.2544 65.216 64.2466Z" fill="white" fill-opacity="0.87"/>
<path d="M65.6225 63.5743C65.3062 61.4045 65.0043 59.1399 64.7615 57.1588C67.361 57.5728 68.93 58.1307 69.7726 58.7151C70.1898 59.0044 70.3968 59.2782 70.4858 59.5128C70.5713 59.7383 70.5672 59.9776 70.4631 60.2489C70.2403 60.8294 69.5803 61.4943 68.5696 62.1431C67.7267 62.6842 66.6965 63.1781 65.6225 63.5743ZM60.9585 65.5168C62.0729 65.5457 63.4433 65.3064 64.808 64.8994C65.0569 66.5499 65.3099 68.1033 65.5458 69.3817C65.8056 70.7887 66.0534 71.9137 66.2637 72.4514C67.4196 75.4065 68.5166 91.8867 44.7057 105.285C38.7949 108.611 34.1954 108.69 31.0048 106.921C27.8012 105.144 25.8514 101.414 25.4459 96.7644C24.6365 87.4829 30.034 74.8598 43.228 68.3409C43.5076 68.2695 43.9302 68.1039 44.421 67.898C44.9495 67.6762 45.6039 67.387 46.3342 67.0641L46.4067 67.0321C47.9309 66.3584 49.7879 65.5394 51.6024 64.8427C53.426 64.1426 55.1675 63.5818 56.468 63.4062C57.1249 63.3175 57.6083 63.3363 57.9195 63.4399C58.0677 63.4892 58.1583 63.5517 58.2146 63.6142C58.2682 63.6736 58.3127 63.757 58.3317 63.8895C58.4165 64.4809 58.7764 64.8976 59.2652 65.1527C59.7337 65.3972 60.3271 65.5005 60.9585 65.5168Z" stroke="url(#paint1_linear_1016_11750)" stroke-opacity="0.5" stroke-linecap="round" stroke-linejoin="round"/>
</g>
<g filter="url(#filter2_b_1016_11750)">
<path d="M51.7178 59.3311C47.7198 60.7982 31.7542 55.8885 25.1891 36.1696C16.9827 11.521 34.0267 8.88003 43.8112 12.1078C53.5957 15.3356 67.7991 29.714 64.6428 43.799C64.1222 45.1972 63.2008 46.7966 62.2249 46.7046L51.7178 59.3311Z" fill="white" fill-opacity="0.87"/>
<path d="M60.5822 45.8477C60.8239 46.2982 61.0997 46.659 61.4155 46.8956L51.4239 58.9026C50.5417 59.174 48.9684 59.1488 46.9351 58.6201C44.83 58.0727 42.3046 57.004 39.6917 55.2779C34.4709 51.8292 28.9097 45.7622 25.6635 36.0117C21.5879 23.7705 23.8512 17.2313 28.0532 14.0853C32.3267 10.8858 38.84 10.9944 43.6546 12.5827C48.4315 14.1585 54.3501 18.4885 58.6818 24.1846C62.9879 29.8469 65.658 36.7663 64.1807 43.5726L62.0576 46.124C61.9024 46.0239 61.6978 45.8119 61.4634 45.375C61.1033 44.7039 60.7357 43.6117 60.3985 41.9395C60.3439 41.6688 60.0802 41.4936 59.8095 41.5482C59.5388 41.6028 59.3636 41.8665 59.4182 42.1372C59.763 43.8467 60.1542 45.0499 60.5822 45.8477Z" stroke="url(#paint2_linear_1016_11750)" stroke-opacity="0.5" stroke-linecap="round" stroke-linejoin="round"/>
</g>
<g filter="url(#filter3_b_1016_11750)">
<path d="M47.9149 71.0952C51.1211 67.9946 58.8765 59.846 57.0879 60.2373C53.3003 44.0983 14.4581 41.7516 4.67359 52.0218C-5.11093 62.2921 5.93611 74.6164 22.6645 77.2574C39.3929 79.8983 44.7185 74.1863 47.9149 71.0952Z" fill="white" fill-opacity="0.87"/>
<path d="M56.6011 60.3515C56.6236 60.4474 56.6724 60.5304 56.7381 60.5946C56.6734 60.7099 56.5794 60.8602 56.4493 61.0476C55.9422 61.7782 55.0578 62.8377 54.0011 64.0242C51.8941 66.3899 49.1624 69.1932 47.5673 70.7358C47.48 70.8202 47.3914 70.9063 47.3012 70.994C45.7364 72.5142 43.6979 74.4948 40.1832 75.8597C36.464 77.3041 31.0439 78.074 22.7425 76.7635C14.4635 75.4565 7.65198 71.7604 4.12227 67.1948C2.36193 64.9178 1.42944 62.4423 1.50417 59.9412C1.57877 57.4445 2.65877 54.8615 5.0356 52.3667C7.375 49.9112 11.514 48.159 16.5526 47.1942C21.5738 46.2328 27.4132 46.0678 33.0721 46.7227C38.7336 47.378 44.1839 48.8504 48.4392 51.141C52.6991 53.4339 55.6996 56.5103 56.6011 60.3515ZM57.2214 60.7216C57.221 60.722 57.2155 60.7231 57.206 60.7234C57.2169 60.7214 57.2217 60.7212 57.2214 60.7216ZM56.8539 60.342C56.8548 60.3346 56.8558 60.3305 56.856 60.3303C56.8563 60.3301 56.8559 60.3338 56.8539 60.342Z" stroke="url(#paint3_linear_1016_11750)" stroke-opacity="0.5" stroke-linecap="round" stroke-linejoin="round"/>
</g>
<g filter="url(#filter4_b_1016_11750)">
<path d="M72.1044 65.5194C69.7906 61.4294 65.1605 60.9319 65.1605 72.2696C63.898 69.0418 58.2167 66.6932 61.0573 83.7125C63.898 100.732 76.2076 106.894 86.3077 100.732C96.4079 94.5696 90.7265 75.4963 81.8889 68.7472C74.8188 63.348 72.42 64.3457 72.1044 65.5194Z" fill="white" fill-opacity="0.87"/>
<path d="M64.6949 72.4517C64.7824 72.6756 65.017 72.8055 65.2532 72.7609C65.4894 72.7164 65.6605 72.51 65.6605 72.2696C65.6605 69.4636 65.9477 67.4248 66.3968 66.0077C66.8489 64.581 67.4426 63.8515 68.0025 63.549C68.5342 63.2618 69.1406 63.3052 69.7907 63.6858C70.4518 64.0729 71.1195 64.7939 71.6692 65.7656C71.7691 65.9422 71.9659 66.041 72.1672 66.0154C72.3686 65.9899 72.5345 65.8452 72.5872 65.6493C72.6271 65.5011 72.7345 65.3367 72.9806 65.2238C73.2377 65.1058 73.6759 65.0326 74.3737 65.1603C75.7788 65.4175 78.0695 66.4596 81.5854 69.1446C85.8868 72.4294 89.4651 78.7659 90.7095 85.0566C91.9572 91.364 90.8267 97.389 86.0473 100.305C81.1503 103.293 75.7502 103.284 71.2228 100.49C66.6826 97.6875 62.9541 92.0394 61.5505 83.6302C60.8436 79.395 60.6723 76.3941 60.8212 74.3265C60.9721 72.232 61.4447 71.1976 61.9106 70.7646C62.1289 70.5618 62.3486 70.4867 62.5642 70.4842C62.7906 70.4816 63.0501 70.5596 63.326 70.7288C63.8848 71.0713 64.4125 71.7297 64.6949 72.4517Z" stroke="url(#paint4_linear_1016_11750)" stroke-opacity="0.5" stroke-linecap="round" stroke-linejoin="round"/>
</g>
<g filter="url(#filter5_b_1016_11750)">
<path d="M62.6453 46.3882C61.6266 47.2208 60.4119 46.6474 59.4823 42.0383C57.5885 32.6484 70.5293 11.2275 85.0483 12.1078C99.5673 12.9881 99.5673 24.4322 98.6204 30.3009C97.6735 36.1696 96.0954 49.0808 84.1014 52.3086C75.1613 54.7146 64.5165 49.784 62.6453 46.3882Z" fill="white" fill-opacity="0.87"/>
<path d="M64.6853 43.9734C64.7499 43.7998 64.7133 43.6048 64.5901 43.4664C64.467 43.3281 64.2774 43.2692 64.0975 43.3134C63.1322 43.5504 62.4125 43.9579 62.0681 44.5864C61.7879 45.0978 61.8083 45.6542 62.0046 46.1885C61.9529 46.204 61.9075 46.2094 61.868 46.2082C61.7716 46.2051 61.6153 46.1593 61.404 45.9216C60.9533 45.4148 60.4361 44.2387 59.9724 41.9395C59.5246 39.719 59.9476 36.7197 61.1076 33.4434C62.2634 30.1794 64.1321 26.6934 66.5105 23.5217C71.2883 17.1503 78.0117 12.1821 85.018 12.6069C88.5827 12.823 91.2185 13.6851 93.1591 14.9185C95.0966 16.1501 96.3673 17.7683 97.1794 19.5419C98.8134 23.11 98.5953 27.3173 98.1268 30.2212C98.0901 30.4487 98.0525 30.6861 98.0135 30.9325C97.5463 33.8842 96.8749 38.1259 95.0495 42.0858C93.0802 46.3575 89.7861 50.261 83.9715 51.8258C79.6253 52.9954 74.8341 52.3861 70.8826 51.0504C68.9104 50.3837 67.1629 49.5412 65.8008 48.6638C64.6176 47.9018 63.7618 47.1371 63.2857 46.4669C63.5397 46.1904 63.7674 45.8594 63.9666 45.5168C64.2508 45.0282 64.4947 44.4852 64.6853 43.9734ZM62.8583 45.3992C62.8617 45.2702 62.8938 45.1605 62.9451 45.0669C63.004 44.9593 63.103 44.8446 63.2578 44.7321C63.2073 44.8283 63.1554 44.9226 63.1022 45.0141C63.0219 45.1521 62.9404 45.281 62.8583 45.3992Z" stroke="url(#paint5_linear_1016_11750)" stroke-opacity="0.5" stroke-linecap="round" stroke-linejoin="round"/>
</g>
<g filter="url(#filter6_b_1016_11750)">
<circle cx="63.1979" cy="57.9709" r="15.6569" fill="url(#paint6_radial_1016_11750)" fill-opacity="0.94"/>
</g>
<defs>
<filter id="filter0_b_1016_11750" x="64.3967" y="38.9923" width="57.6033" height="42.1505" filterUnits="userSpaceOnUse" color-interpolation-filters="sRGB">
<feFlood flood-opacity="0" result="BackgroundImageFix"/>
<feGaussianBlur in="BackgroundImageFix" stdDeviation="2"/>
<feComposite in2="SourceAlpha" operator="in" result="effect1_backgroundBlur_1016_11750"/>
<feBlend mode="normal" in="SourceGraphic" in2="effect1_backgroundBlur_1016_11750" result="shape"/>
</filter>
<filter id="filter1_b_1016_11750" x="20.8672" y="47.3922" width="54.1787" height="65.1768" filterUnits="userSpaceOnUse" color-interpolation-filters="sRGB">
<feFlood flood-opacity="0" result="BackgroundImageFix"/>
<feGaussianBlur in="BackgroundImageFix" stdDeviation="2"/>
<feComposite in2="SourceAlpha" operator="in" result="effect1_backgroundBlur_1016_11750"/>
<feBlend mode="normal" in="SourceGraphic" in2="effect1_backgroundBlur_1016_11750" result="shape"/>
</filter>
<filter id="filter2_b_1016_11750" x="19.0212" y="7" width="50.0698" height="56.5727" filterUnits="userSpaceOnUse" color-interpolation-filters="sRGB">
<feFlood flood-opacity="0" result="BackgroundImageFix"/>
<feGaussianBlur in="BackgroundImageFix" stdDeviation="2"/>
<feComposite in2="SourceAlpha" operator="in" result="effect1_backgroundBlur_1016_11750"/>
<feBlend mode="normal" in="SourceGraphic" in2="effect1_backgroundBlur_1016_11750" result="shape"/>
</filter>
<filter id="filter3_b_1016_11750" x="-3" y="41.8289" width="64.3523" height="40.1067" filterUnits="userSpaceOnUse" color-interpolation-filters="sRGB">
<feFlood flood-opacity="0" result="BackgroundImageFix"/>
<feGaussianBlur in="BackgroundImageFix" stdDeviation="2"/>
<feComposite in2="SourceAlpha" operator="in" result="effect1_backgroundBlur_1016_11750"/>
<feBlend mode="normal" in="SourceGraphic" in2="effect1_backgroundBlur_1016_11750" result="shape"/>
</filter>
<filter id="filter4_b_1016_11750" x="56.2717" y="58.8622" width="39.4067" height="48.2039" filterUnits="userSpaceOnUse" color-interpolation-filters="sRGB">
<feFlood flood-opacity="0" result="BackgroundImageFix"/>
<feGaussianBlur in="BackgroundImageFix" stdDeviation="2"/>
<feComposite in2="SourceAlpha" operator="in" result="effect1_backgroundBlur_1016_11750"/>
<feBlend mode="normal" in="SourceGraphic" in2="effect1_backgroundBlur_1016_11750" result="shape"/>
</filter>
<filter id="filter5_b_1016_11750" x="55.2974" y="8.08148" width="47.6692" height="48.8653" filterUnits="userSpaceOnUse" color-interpolation-filters="sRGB">
<feFlood flood-opacity="0" result="BackgroundImageFix"/>
<feGaussianBlur in="BackgroundImageFix" stdDeviation="2"/>
<feComposite in2="SourceAlpha" operator="in" result="effect1_backgroundBlur_1016_11750"/>
<feBlend mode="normal" in="SourceGraphic" in2="effect1_backgroundBlur_1016_11750" result="shape"/>
</filter>
<filter id="filter6_b_1016_11750" x="39.541" y="34.314" width="47.3137" height="47.3138" filterUnits="userSpaceOnUse" color-interpolation-filters="sRGB">
<feFlood flood-opacity="0" result="BackgroundImageFix"/>
<feGaussianBlur in="BackgroundImageFix" stdDeviation="4"/>
<feComposite in2="SourceAlpha" operator="in" result="effect1_backgroundBlur_1016_11750"/>
<feBlend mode="normal" in="SourceGraphic" in2="effect1_backgroundBlur_1016_11750" result="shape"/>
</filter>
<linearGradient id="paint0_linear_1016_11750" x1="113.772" y1="67.6846" x2="78.5683" y2="62.9111" gradientUnits="userSpaceOnUse">
<stop stop-color="white"/>
<stop offset="1" stop-color="white" stop-opacity="0"/>
</linearGradient>
<linearGradient id="paint1_linear_1016_11750" x1="27.2539" y1="92.7451" x2="65.4414" y2="85.585" gradientUnits="userSpaceOnUse">
<stop stop-color="white"/>
<stop offset="1" stop-color="white" stop-opacity="0"/>
</linearGradient>
<linearGradient id="paint2_linear_1016_11750" x1="44.0562" y1="11" x2="44.0562" y2="59.5727" gradientUnits="userSpaceOnUse">
<stop stop-color="white"/>
<stop offset="1" stop-color="white" stop-opacity="0"/>
</linearGradient>
<linearGradient id="paint3_linear_1016_11750" x1="29.1761" y1="45.8289" x2="29.1761" y2="77.9356" gradientUnits="userSpaceOnUse">
<stop stop-color="white"/>
<stop offset="1" stop-color="white" stop-opacity="0"/>
</linearGradient>
<linearGradient id="paint4_linear_1016_11750" x1="88.7119" y1="97.5185" x2="60.668" y2="76.6348" gradientUnits="userSpaceOnUse">
<stop stop-color="white"/>
<stop offset="1" stop-color="white" stop-opacity="0"/>
</linearGradient>
<linearGradient id="paint5_linear_1016_11750" x1="70.2147" y1="15.1768" x2="79.1319" y2="52.9468" gradientUnits="userSpaceOnUse">
<stop stop-color="white"/>
<stop offset="1" stop-color="white" stop-opacity="0"/>
</linearGradient>
<radialGradient id="paint6_radial_1016_11750" cx="0" cy="0" r="1" gradientUnits="userSpaceOnUse" gradientTransform="translate(63.1979 57.9709) rotate(90) scale(15.6569)">
<stop stop-color="#FFD12D"/>
<stop offset="0.848958" stop-color="#FFD12D" stop-opacity="0.59"/>
<stop offset="1" stop-color="#FFD12D" stop-opacity="0"/>
</radialGradient>
</defs>
</svg>
